<?xml version="1.0" encoding="UTF-8" standalone="no"?>
<svg
   width="456"
   height="456"
   viewBox="0 0 456 456"
   version="1.1"
   xml:space="preserve"
   style="fill-rule:evenodd;clip-rule:evenodd;stroke-linejoin:round;stroke-miterlimit:2;"
   id="svg4"
   sodipodi:docname="splash.svg"
   inkscape:version="1.4 (86a8ad7, 2024-10-11)"
   xmlns:inkscape="http://www.inkscape.org/namespaces/inkscape"
   xmlns:sodipodi="http://sodipodi.sourceforge.net/DTD/sodipodi-0.dtd"
   xmlns="http://www.w3.org/2000/svg"
   xmlns:svg="http://www.w3.org/2000/svg"><defs
   id="defs4" /><sodipodi:namedview
   id="namedview4"
   pagecolor="#ffffff"
   bordercolor="#999999"
   borderopacity="1"
   inkscape:showpageshadow="2"
   inkscape:pageopacity="0"
   inkscape:pagecheckerboard="0"
   inkscape:deskcolor="#d1d1d1"
   inkscape:zoom="1.1008772"
   inkscape:cx="227.54582"
   inkscape:cy="228"
   inkscape:window-width="1366"
   inkscape:window-height="697"
   inkscape:window-x="-8"
   inkscape:window-y="-8"
   inkscape:window-maximized="1"
   inkscape:current-layer="layer1" />
    
    
    
    
<g
   inkscape:groupmode="layer"
   id="layer1"
   inkscape:label="Text"><path
     style="font-weight:bold;font-size:103.904px;font-family:Bahnschrift;-inkscape-font-specification:'Bahnschrift Bold';text-align:center;text-anchor:middle;fill:#ffffff;stroke-width:3.77952;stroke-linecap:round;paint-order:markers stroke fill;fill-opacity:1"
     d="m 134.66682,180.78826 v -13.39387 h 23.59148 q 3.75434,0 6.08813,-2.48599 2.33378,-2.53671 2.33378,-6.6462 v 0 q 0,-4.21095 -2.33378,-6.69694 -2.28305,-2.53672 -6.08813,-2.53672 h -23.59148 v -13.39387 h 23.23634 q 7.00134,0 12.17625,2.84112 5.22564,2.7904 8.1175,7.86383 2.89186,5.07344 2.89186,11.92258 v 0 q 0,6.79841 -2.89186,11.87184 -2.89186,5.07344 -8.1175,7.86383 -5.22564,2.79039 -12.17625,2.79039 z m -6.3418,28.61419 v -73.76778 h 13.90122 v 73.76778 z m 89.08956,0.76102 q -8.1175,0 -14.20562,-3.34847 -6.0374,-3.39921 -9.38586,-9.53806 -3.34847,-6.13886 -3.34847,-14.3071 v -20.90256 q 0,-8.21897 3.34847,-14.30709 3.34846,-6.13886 9.38586,-9.48733 6.08812,-3.39921 14.20562,-3.39921 8.1175,0 14.15489,3.39921 6.08813,3.34847 9.43659,9.48733 3.34847,6.08812 3.34847,14.30709 v 20.90256 q 0,8.16824 -3.34847,14.3071 -3.34846,6.13885 -9.43659,9.53806 -6.03739,3.34847 -14.15489,3.34847 z m 0,-13.90122 q 5.68225,0 9.08145,-3.55141 3.44994,-3.5514 3.44994,-9.38586 v -21.61284 q 0,-5.88519 -3.44994,-9.38586 -3.3992,-3.55141 -9.08145,-3.55141 -5.68225,0 -9.13219,3.55141 -3.3992,3.50067 -3.3992,9.38586 v 21.61284 q 0,5.83446 3.3992,9.38586 3.44994,3.55141 9.13219,3.55141 z m 46.16827,-16.53941 v -13.39387 h 25.67159 q 3.247,0 5.17491,-2.38452 1.97864,-2.38451 2.02937,-6.29106 v 0 q 0,-3.90655 -1.97864,-6.29106 -1.9279,-2.38452 -5.22564,-2.38452 h -25.67159 v -13.39387 h 26.78775 q 6.13886,0 10.70495,2.73965 4.61683,2.73966 7.15355,7.71163 2.53672,4.97197 2.53672,11.61817 v 0 q 0,6.6462 -2.58745,11.61817 -2.53672,4.97197 -7.10282,7.71163 -4.56609,2.73965 -10.70495,2.73965 z m -5.53005,29.67961 v -73.81851 h 13.90122 v 73.81851 z m 38.964,0 -17.90923,-31.96266 14.86517,-2.33378 19.88788,34.29644 z m 74.93468,-73.76778 -21.71431,45.3058 v 28.46198 h -13.90122 v -28.46198 l -21.71431,-45.3058 h 14.56076 l 14.10416,31.75972 14.10416,-31.75972 z m 46.87856,0 v 73.76778 h -14.40856 v -73.76778 z m 7.1028,73.76778 28.20831,-73.76778 h 8.82778 l 28.20832,73.76778 h -14.96664 l -17.65557,-50.37923 -17.65556,50.37923 z m 13.54608,-11.82111 v -13.39387 h 38.81179 v 13.39387 z"
     id="text4"
     inkscape:label="Font-Bahnschrift"
     transform="scale(0.74629747,1.3399483)"
     aria-label="PORY IA" /></g></svg>
